# xmcd
#
# Track frame offsets:
#	150
#	15717
#	27152
#	33950
#	47430
#	69812
#	81442
#	97322
#	111187
#	137845
#	149600
#	157792
#	172025
#	188617
#	203450
#	215077
#	226265
#
# Disc length: 3167 seconds
#
# Revision: 1
# Processed by: cddbd v1.5.2PL0 Copyright (c) Steve Scherf et al.
# Submitted via: EasyCDDAExtractor 7.0.5.1
#
DISCID=e30c5d11
DTITLE=Various Artist - Bläserrunde der Musikhochschule Wien
DYEAR=1993
DGENRE=Blasmusik
TTITLE0=Hans Gansch sen. - Bläserklänge - Marsch
TTITLE1=Hans Gansch sen. - Wagnermeister - Marsch
TTITLE2=Hans Gansch sen. - Fanfare Nr. 4 - Melker Sommerspielfanfare
TTITLE3=Hans Gansch sen. - Melk 1989 - Marsch
TTITLE4=Hans Gansch sen. - Herbstfanfare - Ouvertüre
TTITLE5=Hans Gansch sen. - Wir spielen auf - Marsch
TTITLE6=Hans Gansch sen. - Margarethe - Polka
TTITLE7=Hans Gansch sen. - Klingendes Persenbeug - Marsch
TTITLE8=Hans Gansch sen. - Erinnerungen - Konzertwalzer
TTITLE9=Hans Gansch sen. - Dreiholz - Polka
TTITLE10=Traditionell - Abendstimmung - Blechbläserquintett
TTITLE11=Hans Gansch sen. - Volksfest - Marsch
TTITLE12=Hans Gansch sen. - Paarläufer - Polka
TTITLE13=Hans Gansch sen. - Walter Gartner - Marsch
TTITLE14=Hans Gansch sen. - Auf geht's - Polka
TTITLE15=Hans Gansch sen. - Tag der Blasmusik - Marsch
TTITLE16=Hans Gansch sen. - Raxendorfer Grüsse - Marsch
EXTD=
EXTT0=
EXTT1=
EXTT2=
EXTT3=
EXTT4=
EXTT5=
EXTT6=
EXTT7=
EXTT8=
EXTT9=
EXTT10=
EXTT11=
EXTT12=
EXTT13=
EXTT14=
EXTT15=
EXTT16=
PLAYORDER=
